<?xml version="1.0" encoding="UTF-8" standalone="no"?>
<svg
   xmlns:dc="http://purl.org/dc/elements/1.1/"
   xmlns:cc="http://creativecommons.org/ns#"
   xmlns:rdf="http://www.w3.org/1999/02/22-rdf-syntax-ns#"
   xmlns:svg="http://www.w3.org/2000/svg"
   xmlns="http://www.w3.org/2000/svg"
   version="1.0"
   width="448.000000pt"
   height="746.000000pt"
   viewBox="0 0 448.000000 746.000000"
   preserveAspectRatio="xMidYMid meet"
   id="svg10">
  <defs
     id="defs14" />
  <metadata
     id="metadata2">
Created by potrace 1.16, written by Peter Selinger 2001-2019
<rdf:RDF>
  <cc:Work
     rdf:about="">
    <dc:format>image/svg+xml</dc:format>
    <dc:type
       rdf:resource="http://purl.org/dc/dcmitype/StillImage" />
    <dc:title></dc:title>
  </cc:Work>
</rdf:RDF>
</metadata>
  <path
     style="fill:#000000;stroke:none;stroke-width:0.1"
     id="path4"
     d="M 0,3.2 C 0,6.8 0.4,6.7 1.4,2.7 1.8,1.1 1.6,0 1,0 0.5,0 0,1.4 0,3.2 Z" />
  <path
     style="fill:#ff5555;stroke:none;stroke-width:0.1;fill-opacity:0.2"
     d="m 169.7,36.2 c 7.7,2.9 15.2,10.4 18.1,18.1 1.9,4.9 2.2,7.9 2.2,19.7 0,17.4 -1.7,22.8 -9.4,30.6 -7.8,7.7 -13.2,9.4 -30.6,9.4 -17.4,0 -22.8,-1.7 -30.6,-9.4 C 111.7,96.8 110,91.4 110,74 c 0,-17.4 1.7,-22.8 9.4,-30.6 7.8,-7.7 12.8,-9.3 30.3,-9.3 12.2,-0.1 15,0.2 20,2.1 z"
     id="path831" />
  <path
     style="fill:#ff5555;stroke:none;stroke-width:0.1;fill-opacity:0.2"
     d="m 277.7,36.2 c 7.7,2.9 15.2,10.4 18.1,18.1 1.9,4.9 2.2,7.9 2.2,19.7 0,17.4 -1.7,22.8 -9.4,30.6 -7.8,7.7 -13.2,9.4 -30.6,9.4 -17.4,0 -22.8,-1.7 -30.6,-9.4 C 219.7,96.8 218,91.4 218,74 c 0,-17.4 1.7,-22.8 9.4,-30.6 7.8,-7.7 12.8,-9.3 30.3,-9.3 12.2,-0.1 15,0.2 20,2.1 z"
     id="path829" />
  <g
     id="g857"
     transform="rotate(90,132.76272,-25.288134)">
    <path
       id="path831-3"
       d="m 250.19153,22.21777 c 7.7,2.9 15.2,10.4 18.1,18.099999 1.89999,4.9 2.19999,7.9 2.19999,19.7 0,17.399999 -1.69999,22.799999 -9.39999,30.599999 -7.8,7.700003 -13.2,9.400002 -30.6,9.400002 -17.4,0 -22.8,-1.699999 -30.6,-9.400002 -7.7,-7.8 -9.4,-13.2 -9.4,-30.599999 0,-17.399999 1.7,-22.799999 9.4,-30.599999 7.8,-7.7 12.8,-9.3 30.3,-9.3 12.2,-0.1 15,0.2 20,2.1 z"
       style="fill:#ff5555;fill-opacity:0.2;stroke:none;stroke-width:0.09999999" />
    <path
       id="path829-6"
       d="m 358.19152,22.21777 c 7.70001,2.9 15.20001,10.4 18.10001,18.099999 1.9,4.9 2.2,7.9 2.2,19.7 0,17.399999 -1.70001,22.799999 -9.4,30.599999 -7.8,7.700003 -13.2,9.400002 -30.6,9.400002 -17.4,0 -22.8,-1.699999 -30.6,-9.400002 -7.7,-7.8 -9.4,-13.2 -9.4,-30.599999 0,-17.399999 1.7,-22.799999 9.4,-30.599999 7.8,-7.7 12.8,-9.3 30.3,-9.3 12.19999,-0.1 15,0.2 19.99999,2.1 z"
       style="fill:#ff5555;fill-opacity:0.2;stroke:none;stroke-width:0.09999999" />
  </g>
</svg>
