<?xml version="1.0" encoding="UTF-8" standalone="no"?>
<svg
   xmlns:dc="http://purl.org/dc/elements/1.1/"
   xmlns:cc="http://creativecommons.org/ns#"
   xmlns:rdf="http://www.w3.org/1999/02/22-rdf-syntax-ns#"
   xmlns:svg="http://www.w3.org/2000/svg"
   xmlns="http://www.w3.org/2000/svg"
   version="1.0"
   width="448.000000pt"
   height="746.000000pt"
   viewBox="0 0 448.000000 746.000000"
   preserveAspectRatio="xMidYMid meet"
   id="svg10">
  <defs
     id="defs14" />
  <metadata
     id="metadata2">
Created by potrace 1.16, written by Peter Selinger 2001-2019
<rdf:RDF>
  <cc:Work
     rdf:about="">
    <dc:format>image/svg+xml</dc:format>
    <dc:type
       rdf:resource="http://purl.org/dc/dcmitype/StillImage" />
    <dc:title></dc:title>
  </cc:Work>
</rdf:RDF>
</metadata>
  <path
     style="fill:#ff5555;fill-opacity:0.2;stroke:none;stroke-width:0.1"
     d="m 115.96271,655.6661 c 7.7,2.9 15.2,10.4 18.1,18.1 1.9,4.9 2.2,7.9 2.2,19.7 0,17.4 -1.7,22.8 -9.4,30.6 -7.8,7.7 -13.2,9.4 -30.599999,9.4 -17.4,0 -22.8,-1.7 -30.6,-9.4 -7.7,-7.8 -9.4,-13.2 -9.4,-30.6 0,-17.4 1.7,-22.8 9.4,-30.6 7.8,-7.7 12.8,-9.3 30.3,-9.3 12.199999,-0.1 14.999999,0.2 19.999999,2.1 z"
     id="path825" />
  <path
     style="fill:#ff5555;fill-opacity:0.2;stroke:none;stroke-width:0.1"
     d="m 223.96271,655.6661 c 7.7,2.9 15.2,10.4 18.1,18.1 1.9,4.9 2.2,7.9 2.2,19.7 0,17.4 -1.7,22.8 -9.4,30.6 -7.8,7.7 -13.2,9.4 -30.6,9.4 -17.4,0 -22.8,-1.7 -30.6,-9.4 -7.7,-7.8 -9.4,-13.2 -9.4,-30.6 0,-17.4 1.7,-22.8 9.4,-30.6 7.8,-7.7 12.8,-9.3 30.3,-9.3 12.2,-0.1 15,0.2 20,2.1 z"
     id="path6" />
  <path
     style="fill:#ff5555;fill-opacity:0.2;stroke:none;stroke-width:0.09999999"
     d="m 424.31017,556.42964 c 7.7,2.9 15.2,10.4 18.1,18.1 1.9,4.9 2.2,7.9 2.2,19.7 0,17.4 -1.7,22.8 -9.4,30.6 -7.8,7.7 -13.2,9.4 -30.6,9.4 -17.4,0 -22.8,-1.7 -30.6,-9.4 -7.7,-7.8 -9.4,-13.2 -9.4,-30.6 0,-17.4 1.7,-22.8 9.4,-30.6 7.8,-7.7 12.8,-9.3 30.3,-9.3 12.2,-0.1 15,0.2 20,2.1 z"
     id="path6-7" />
  <path
     style="fill:#ff5555;fill-opacity:0.2;stroke:none;stroke-width:0.09999999"
     d="m 335.8017,660.7432 c 7.7,2.9 15.2,10.4 18.1,18.1 1.9,4.9 2.2,7.9 2.2,19.7 0,17.4 -1.7,22.8 -9.4,30.6 -7.8,7.7 -13.2,9.4 -30.6,9.4 -17.4,0 -22.8,-1.7 -30.6,-9.4 -7.7,-7.8 -9.4,-13.2 -9.4,-30.6 0,-17.4 1.7,-22.8 9.4,-30.6 7.8,-7.7 12.8,-9.3 30.3,-9.3 12.2,-0.1 15,0.2 20,2.1 z"
     id="path6-7-5" />
</svg>
